<svg width="149" height="44" viewBox="0 0 149 44" fill="none" xmlns="http://www.w3.org/2000/svg">
<path d="M7.00568 8.81818H2.37784V35H7.00568V8.81818ZM11.7646 35H16.3924V15.3636H11.7646V35ZM14.0913 12.5767C15.5614 12.5767 16.7631 11.4517 16.7631 10.071C16.7631 8.67756 15.5614 7.55256 14.0913 7.55256C12.6083 7.55256 11.4066 8.67756 11.4066 10.071C11.4066 11.4517 12.6083 12.5767 14.0913 12.5767ZM38.6911 15.3636H33.7692L29.2436 29.9503H29.0391L24.5263 15.3636H19.5916L26.5845 35H31.6982L38.6911 15.3636ZM49.9187 35.3835C54.4954 35.3835 57.6403 33.1463 58.4585 29.733L54.1374 29.2472C53.511 30.9091 51.9769 31.7784 49.9826 31.7784C46.9911 31.7784 45.0096 29.8097 44.9712 26.4474H58.6502V25.0284C58.6502 18.1378 54.5082 15.108 49.6758 15.108C44.0508 15.108 40.3817 19.2372 40.3817 25.2969C40.3817 31.4588 43.9996 35.3835 49.9187 35.3835ZM44.984 23.3281C45.1246 20.8224 46.9783 18.7131 49.7397 18.7131C52.3988 18.7131 54.1886 20.6562 54.2141 23.3281H44.984Z" fill="#F7FAFC"/>
<path d="M62.7699 35H67.5128V23.8778H78.392V19.902H67.5128V12.794H79.5426V8.81818H62.7699V35ZM89.1339 35.3963C92.2148 35.3963 94.0558 33.9517 94.8995 32.3026H95.0529V35H99.5018V21.858C99.5018 16.6676 95.2702 15.108 91.5245 15.108C87.3952 15.108 84.2248 16.9489 83.2021 20.5284L87.5231 21.142C87.9833 19.7997 89.2873 18.6491 91.5501 18.6491C93.6978 18.6491 94.8739 19.7486 94.8739 21.679V21.7557C94.8739 23.0852 93.4805 23.1491 90.016 23.5199C86.2063 23.929 82.5629 25.0668 82.5629 29.4901C82.5629 33.3509 85.3881 35.3963 89.1339 35.3963ZM90.3356 31.9957C88.4052 31.9957 87.0245 31.1136 87.0245 29.4134C87.0245 27.6364 88.5714 26.8949 90.6424 26.6009C91.8569 26.4347 94.2859 26.1278 94.8867 25.642V27.956C94.8867 30.142 93.1225 31.9957 90.3356 31.9957ZM104.155 35H108.783V23.456C108.783 20.9631 110.662 19.1989 113.206 19.1989C113.986 19.1989 114.958 19.3395 115.354 19.4673V15.2102C114.932 15.1335 114.203 15.0824 113.692 15.0824C111.442 15.0824 109.563 16.3608 108.847 18.6364H108.642V15.3636H104.155V35ZM118.429 35H123.056V23.0597C123.056 20.6435 124.667 19.0071 126.662 19.0071C128.618 19.0071 129.96 20.3239 129.96 22.3438V35H134.498V22.7528C134.498 20.5412 135.815 19.0071 138.052 19.0071C139.919 19.0071 141.402 20.1065 141.402 22.5355V35H146.042V21.8196C146.042 17.4347 143.511 15.108 139.906 15.108C137.055 15.108 134.882 16.5142 134.012 18.7003H133.808C133.054 16.4759 131.149 15.108 128.502 15.108C125.869 15.108 123.9 16.4631 123.082 18.7003H122.852V15.3636H118.429V35Z" fill="#C4F575"/>
<circle cx="14" cy="9.5" r="3.5" fill="#F7FAFC"/>
<path d="M16 9.48501L13.0009 11.4639V7.50614L16 9.48501Z" fill="#CE2224"/>
</svg>
